# xmcd
#
# Track frame offsets: 
#        150
#        13291
#        34921
#        54257
#        75562
#        95489
#        108254
#        136566
#        155743
#        180198
#        210348
#        227437
#        232174
#        244702
#
# Disc length: 3500 seconds
#
# Revision: 7
# Processed by: cddbd v1.5.2PL0 Copyright (c) Steve Scherf et al.
# Submitted via: ExactAudioCopy v1.0b4
#
DISCID=a30daa0e
DTITLE=Canned Heat - Friends In The Can
DYEAR=2003
DGENRE=Blues
TTITLE0=Same Old Games
TTITLE1=Bad Trouble
TTITLE2=Black Coffee
TTITLE3=Getaway
TTITLE4=It Don't Matter
TTITLE5=Let's Work Together
TTITLE6=1 2 3 Here We Go Again
TTITLE7=That Fat Cat
TTITLE8=Home To You
TTITLE9=Never Get Out Of These Blues Alive
TTITLE10=Little Wheel
TTITLE11=Silence
TTITLE12=Let's Work Together (as heard on the target commercial)
TTITLE13=Getaway (edited single version)
EXTD=Year  2003 YEAR: 2003
EXTT0=
EXTT1=
EXTT2=
EXTT3=
EXTT4=
EXTT5=
EXTT6=
EXTT7=
EXTT8=
EXTT9=
EXTT10=
EXTT11=
EXTT12=
EXTT13=
PLAYORDER=
